<?xml version="1.0" encoding="UTF-8" standalone="no"?>
<!-- Created with Inkscape (http://www.inkscape.org/) -->

<svg
   width="16mm"
   height="16mm"
   viewBox="0 0 16 16"
   version="1.1"
   id="svg5"
   sodipodi:docname="blanket.svg.2022_01_09_13_45_01.0.svg"
   inkscape:version="1.1 (c68e22c387, 2021-05-23)"
   xmlns:inkscape="http://www.inkscape.org/namespaces/inkscape"
   xmlns:sodipodi="http://sodipodi.sourceforge.net/DTD/sodipodi-0.dtd"
   xmlns="http://www.w3.org/2000/svg"
   xmlns:svg="http://www.w3.org/2000/svg">
  <sodipodi:namedview
     id="namedview7"
     pagecolor="#505050"
     bordercolor="#ffffff"
     borderopacity="1"
     inkscape:pageshadow="0"
     inkscape:pageopacity="0"
     inkscape:pagecheckerboard="1"
     inkscape:document-units="mm"
     showgrid="false"
     inkscape:zoom="16.419569"
     inkscape:cx="6.7297747"
     inkscape:cy="28.045803"
     inkscape:window-width="2560"
     inkscape:window-height="1351"
     inkscape:window-x="1591"
     inkscape:window-y="-9"
     inkscape:window-maximized="1"
     inkscape:current-layer="layer1"
     units="mm"
     width="49px"
     scale-x="1"
     height="63px"
     inkscape:lockguides="false"
     viewbox-width="16"
     viewbox-height="15.9" />
  <defs
     id="defs2" />
  <g
     inkscape:label="Layer 1"
     inkscape:groupmode="layer"
     id="layer1">
    <path
       style="fill:none;stroke:#000000;stroke-opacity:0.97330594;stroke-width:0.1;stroke-miterlimit:4;stroke-dasharray:none;stroke-linejoin:round;stroke-linecap:round;paint-order:normal"
       d="M 8.1697482,7.0256611 8.1536351,15.614371"
       id="path857" />
    <path
       style="fill:none;stroke:#000000;stroke-width:0.1;stroke-linejoin:round;stroke-miterlimit:4;stroke-dasharray:none;stroke-opacity:0.973306;stroke-linecap:round;paint-order:normal"
       d="M 15.002043,3.8028808 14.98593,12.391591"
       id="path857-7" />
    <path
       style="fill:none;stroke:#000000;stroke-width:0.1;stroke-linejoin:round;stroke-miterlimit:4;stroke-dasharray:none;stroke-opacity:0.973306;stroke-linecap:round;paint-order:normal"
       d="m 0.99906192,3.7384251 -0.016113,8.5887099"
       id="path857-3" />
    <path
       style="fill:none;stroke:#000000;stroke-width:0.1;stroke-linecap:round;stroke-linejoin:round;stroke-miterlimit:4;stroke-dasharray:none;stroke-opacity:1;paint-order:normal"
       d="M 8.169748,7.0256611 15.0101,4.0848741 8.0569508,1.5227637 1.0151758,4.0043045 8.169748,7.0256611"
       id="path1553"
       sodipodi:nodetypes="ccccc" />
    <path
       style="fill:none;stroke:#000000;stroke-width:0.1;stroke-linecap:round;stroke-linejoin:round;stroke-opacity:1;paint-order:normal;stroke-miterlimit:4;stroke-dasharray:none"
       d="M 8.1536351,15.614371 14.98593,12.391591 8.0408379,9.7972525 0.982949,12.327135 8.1536351,15.614371"
       id="path1553-4" />
    <path
       style="fill:none;stroke:#000000;stroke-width:0.265;stroke-linecap:round;stroke-linejoin:miter;stroke-miterlimit:4;stroke-dasharray:none;stroke-opacity:1"
       d="m 2.0142377,12.649413 c 0,0 -0.8701508,-0.47536 -0.8782077,-1.675846 -0.00692,-1.0313927 0.5478727,-1.111859 0.66067,-1.1440868 0.1127973,-0.032228 0.5962145,0.080569 0.5962145,0.080569 L 6.8161803,11.89206"
       id="path9028"
       sodipodi:nodetypes="csscc" />
    <path
       style="fill:none;stroke:#000000;stroke-width:0.264583px;stroke-linecap:round;stroke-linejoin:miter;stroke-opacity:1"
       d="m 6.9033755,13.342835 c 0,0 1.2059455,0.382177 1.2542872,-1.0439 C 8.1997022,11.058773 7.6379894,10.796314 7.380167,10.586833 7.1223446,10.377353 6.5100162,10.135644 6.5100162,10.135644 L 2.0625794,8.1536343"
       id="path9376"
       sodipodi:nodetypes="csscc" />
    <path
       style="fill:none;stroke:#000000;stroke-width:0.265;stroke-linecap:round;stroke-linejoin:miter;stroke-miterlimit:4;stroke-dasharray:none;stroke-opacity:1"
       d="m 2.3929145,9.9100492 c 0,0 -1.329397,-0.4350748 -1.3455109,-2.0384081 C 1.029911,6.1311291 2.296231,6.5422442 2.296231,6.5422442 l 4.8261136,2.0948071"
       id="path9767"
       sodipodi:nodetypes="cscc" />
    <path
       style="fill:none;stroke:#000000;stroke-width:0.264583px;stroke-linecap:round;stroke-linejoin:miter;stroke-opacity:1"
       d="m 6.5100162,10.127587 c 0,0 1.5447115,0.760667 1.5469346,-1.1602006 C 8.0589649,7.2270849 7.0881025,6.8947359 7.0881025,6.8947359 L 1.9336682,4.761658 c 0,0 -0.7614858,-0.2659703 -0.7412395,0.6928977 0.013949,0.6606187 0.4350754,0.8298661 0.4350754,0.8298661"
       id="path9802"
       sodipodi:nodetypes="csccsc" />
    <path
       style="fill:none;stroke:#000000;stroke-width:0.264583px;stroke-linecap:round;stroke-linejoin:miter;stroke-opacity:1"
       d="M 8.0372914,15.187338 14.604488,12.077369"
       id="path12412"
       sodipodi:nodetypes="cc" />
    <path
       style="fill:none;stroke:#000000;stroke-width:0.264583px;stroke-linecap:round;stroke-linejoin:miter;stroke-opacity:1"
       d="M 7.5849078,13.407981 14.447496,10.152805"
       id="path12414"
       sodipodi:nodetypes="cc" />
    <path
       style="fill:none;stroke:#000000;stroke-width:0.264583px;stroke-linecap:round;stroke-linejoin:miter;stroke-opacity:1"
       d="M 7.2923198,10.277613 13.874147,7.411722"
       id="path2853"
       sodipodi:nodetypes="cc" />
    <path
       style="fill:none;stroke:#000000;stroke-width:0.264583px;stroke-linecap:round;stroke-linejoin:miter;stroke-opacity:1"
       d="m 13.615151,10.550601 c 0,0 1.336462,-0.6485711 1.353624,-1.682202 0.01939,-1.1678745 -1.335822,-1.3550078 -1.335822,-1.3550078"
       id="path3021"
       sodipodi:nodetypes="csc" />
    <path
       style="fill:none;stroke:#000000;stroke-width:0.264583px;stroke-linecap:round;stroke-linejoin:miter;stroke-opacity:1"
       d="m 13.874147,7.411722 c 0,0 1.034335,-0.483245 1.047326,-1.4818059 C 14.889288,4.7536012 13.479278,4.3104689 13.479278,4.3104689 L 10.66838,3.2427346"
       id="path3449"
       sodipodi:nodetypes="cccc" />
    <path
       style="fill:none;stroke:#000000;stroke-width:0.265;stroke-linecap:round;stroke-linejoin:miter;stroke-miterlimit:4;stroke-dasharray:none;stroke-opacity:1"
       d="M 8.0808192,14.195364 14.551669,11.040296"
       id="path8457"
       sodipodi:nodetypes="cc" />
    <path
       style="fill:none;stroke:#000000;stroke-width:0.264583px;stroke-linecap:butt;stroke-linejoin:miter;stroke-opacity:1"
       d="m 8.0372914,15.187338 v 0 c 0,0 -0.5899066,0.110101 -0.6933805,-0.652599 -0.099574,-0.733957 0.2409969,-1.126758 0.2409969,-1.126758"
       id="path9042"
       sodipodi:nodetypes="ccsc" />
    <path
       style="fill:none;stroke:#000000;stroke-width:0.264583px;stroke-linecap:butt;stroke-linejoin:miter;stroke-opacity:1"
       d="m 2.0142377,12.649413 c 5.6479228,2.449313 5.6479228,2.449313 5.6479228,2.449313"
       id="path10911" />
    <path
       style="fill:none;stroke:#000000;stroke-width:0.264583px;stroke-linecap:round;stroke-linejoin:miter;stroke-opacity:1"
       d="M 6.9033755,13.342835 2.135092,11.158877"
       id="path10913"
       sodipodi:nodetypes="cc" />
    <path
       style="fill:none;stroke:#000000;stroke-width:0.264583px;stroke-linecap:round;stroke-linejoin:miter;stroke-opacity:1"
       d="m 14.604488,12.077369 c 0,0 0.445897,-0.225593 0.445897,-0.60427 -0.0282,-0.471332 -0.498716,-0.432803 -0.498716,-0.432803 0,0 0.466488,-0.147302 0.454403,-0.582373 -0.01768,-0.6365725 -0.788199,-0.204406 -0.788199,-0.204406"
       id="path12886"
       sodipodi:nodetypes="cccsc" />
    <path
       style="fill:none;stroke:#000000;stroke-width:0.264583px;stroke-linecap:round;stroke-linejoin:miter;stroke-opacity:1"
       d="M 1.6275041,6.2844218 2.296231,6.5422441"
       id="path13875"
       sodipodi:nodetypes="cc" />
    <path
       style="fill:none;stroke:#000000;stroke-width:0.264583px;stroke-linecap:round;stroke-linejoin:round;stroke-opacity:1"
       d="m 10.66838,3.2427346 c 0,0 -0.186296,-0.063776 -0.34781,-0.038692 -0.108799,0.016897 -0.3459911,0.1537378 -0.3459911,0.1537378 L 8.6773364,4.1251589 c 0,0 -0.3817542,0.181167 -0.6526133,0.153082 C 7.7433882,4.2490697 7.4526798,4.1090451 7.4526798,4.1090451 L 6.0207225,3.4297624 c 0,0 -0.2821909,-0.166484 -0.4023934,-0.1689361 -0.2072233,-0.00423 -0.503183,0.1390347 -0.503183,0.1390347"
       id="path16474"
       sodipodi:nodetypes="csccsccsc" />
    <path
       style="fill:none;stroke:#000000;stroke-width:0.264583px;stroke-linecap:round;stroke-linejoin:round;stroke-opacity:1"
       d="m 5.350131,3.7518662 2.0190473,0.930766 c 0,0 0.380409,0.1922402 0.7030771,0.1862872 C 8.4000859,4.8628712 8.6792917,4.744323 8.6792917,4.744323 L 10.487929,3.6353267"
       id="path16474-6"
       sodipodi:nodetypes="ccscc" />
    <path
       style="fill:none;stroke:#000000;stroke-width:0.264583px;stroke-linecap:butt;stroke-linejoin:miter;stroke-opacity:1"
       d="m 5.1151461,3.3998609 v 0 l -3.6623793,1.385724"
       id="path23413"
       sodipodi:nodetypes="ccc" />
    <path
       style="fill:none;stroke:#000000;stroke-width:0.264583px;stroke-linecap:butt;stroke-linejoin:miter;stroke-opacity:1"
       d="M 6.2087276,3.2417574 7.8164553,2.5409176 c 0,0 0.1652164,-0.051274 0.2392791,-0.056971 0.074063,-0.0057 0.2278851,0.045577 0.2278851,0.045577 l 1.549618,0.6950492"
       id="path23737"
       sodipodi:nodetypes="ccccc" />
    <path
       style="fill:none;stroke:#000000;stroke-width:0.265;stroke-linecap:round;stroke-linejoin:round;stroke-opacity:1;stroke-miterlimit:4;stroke-dasharray:none"
       d="M 5.6002737,3.2587553 10.385859,3.19039"
       id="path24209"
       sodipodi:nodetypes="cc" />
  </g>
</svg>
