<?xml version="1.0" encoding="UTF-8" standalone="no"?>
<!-- Created with Inkscape (http://www.inkscape.org/) -->

<svg
   width="16mm"
   height="16mm"
   viewBox="0 0 16 16"
   version="1.1"
   id="svg5"
   sodipodi:docname="blanket.svg"
   inkscape:version="1.1 (c68e22c387, 2021-05-23)"
   xmlns:inkscape="http://www.inkscape.org/namespaces/inkscape"
   xmlns:sodipodi="http://sodipodi.sourceforge.net/DTD/sodipodi-0.dtd"
   xmlns="http://www.w3.org/2000/svg"
   xmlns:svg="http://www.w3.org/2000/svg">
  <sodipodi:namedview
     id="namedview7"
     pagecolor="#505050"
     bordercolor="#ffffff"
     borderopacity="1"
     inkscape:pageshadow="0"
     inkscape:pageopacity="0"
     inkscape:pagecheckerboard="1"
     inkscape:document-units="mm"
     showgrid="false"
     inkscape:zoom="16.419569"
     inkscape:cx="22.929956"
     inkscape:cy="28.472123"
     inkscape:window-width="2560"
     inkscape:window-height="1351"
     inkscape:window-x="1591"
     inkscape:window-y="-9"
     inkscape:window-maximized="1"
     inkscape:current-layer="layer1"
     units="mm"
     width="49px"
     scale-x="1"
     height="63px"
     inkscape:lockguides="false"
     viewbox-width="16"
     viewbox-height="15.9" />
  <defs
     id="defs2" />
  <g
     inkscape:label="Layer 1"
     inkscape:groupmode="layer"
     id="layer1">
    <path
       style="fill:none;stroke:#000000;stroke-opacity:0.97330594;stroke-width:0.1;stroke-miterlimit:4;stroke-dasharray:none;stroke-linejoin:round;stroke-linecap:round;paint-order:normal"
       d="M 8.1697482,7.0256611 8.1536351,15.614371"
       id="path857" />
    <path
       style="fill:none;stroke:#000000;stroke-width:0.1;stroke-linejoin:round;stroke-miterlimit:4;stroke-dasharray:none;stroke-opacity:0.973306;stroke-linecap:round;paint-order:normal"
       d="M 15.002043,3.8028808 14.98593,12.391591"
       id="path857-7" />
    <path
       style="fill:none;stroke:#000000;stroke-width:0.1;stroke-linejoin:round;stroke-miterlimit:4;stroke-dasharray:none;stroke-opacity:0.973306;stroke-linecap:round;paint-order:normal"
       d="m 0.99906192,3.7384251 -0.016113,8.5887099"
       id="path857-3" />
    <path
       style="fill:none;stroke:#000000;stroke-width:0.1;stroke-linecap:round;stroke-linejoin:round;stroke-opacity:1;paint-order:normal;stroke-miterlimit:4;stroke-dasharray:none"
       d="M 8.169748,7.0256611 15.002043,3.8028808 8.0569508,1.2085426 0.99906192,3.7384251 8.169748,7.0256611"
       id="path1553" />
    <path
       style="fill:none;stroke:#000000;stroke-width:0.1;stroke-linecap:round;stroke-linejoin:round;stroke-opacity:1;paint-order:normal;stroke-miterlimit:4;stroke-dasharray:none"
       d="M 8.1536351,15.614371 14.98593,12.391591 8.0408379,9.7972525 0.982949,12.327135 8.1536351,15.614371"
       id="path1553-4" />
    <path
       style="fill:none;stroke:#000000;stroke-width:0.265;stroke-linecap:round;stroke-linejoin:round;stroke-miterlimit:4;stroke-dasharray:none;stroke-opacity:1"
       d="M 2.0142377,12.649413 7.235142,15.03427 c 0,0 0.8468334,0.354346 0.7734672,-0.563986 -0.048781,-0.610595 -0.6928978,-0.902379 -0.6928978,-0.902379 l -4.9711387,-2.27206"
       id="path1916"
       sodipodi:nodetypes="ccscc" />
    <path
       style="fill:none;stroke:#000000;stroke-width:0.265;stroke-linecap:round;stroke-linejoin:miter;stroke-miterlimit:4;stroke-dasharray:none;stroke-opacity:1"
       d="m 2.0142377,12.649413 c 0,0 -0.8701508,-0.47536 -0.8782077,-1.675846 -0.00692,-1.0313927 0.5478727,-1.111859 0.66067,-1.1440868 0.1127973,-0.032228 0.5962145,0.080569 0.5962145,0.080569 L 6.8161803,11.89206"
       id="path9028"
       sodipodi:nodetypes="csscc" />
    <path
       style="fill:none;stroke:#000000;stroke-width:0.264583px;stroke-linecap:round;stroke-linejoin:miter;stroke-opacity:1"
       d="m 7.1706863,13.519564 v 0 c 0,0 0.9184923,0 0.9023784,-1.240771 C 8.0569516,11.038023 7.6379894,10.796314 7.380167,10.586833 7.1223446,10.377353 6.5100162,10.135644 6.5100162,10.135644 L 2.0625794,8.1536343"
       id="path9376"
       sodipodi:nodetypes="ccsscc" />
    <path
       style="fill:none;stroke:#000000;stroke-width:0.265;stroke-linecap:round;stroke-linejoin:miter;stroke-miterlimit:4;stroke-dasharray:none;stroke-opacity:1"
       d="m 2.3929145,9.9100492 c 0,0 -1.329397,-0.4350748 -1.3455109,-2.0384081 C 1.029911,6.1311291 2.296231,6.5422442 2.296231,6.5422442 l 4.8261136,2.0948071"
       id="path9767"
       sodipodi:nodetypes="cscc" />
    <path
       style="fill:none;stroke:#000000;stroke-width:0.264583px;stroke-linecap:round;stroke-linejoin:miter;stroke-opacity:1"
       d="m 6.5100162,10.127587 c 0,0 1.5447115,0.760667 1.5469346,-1.1602006 C 8.0589649,7.2270849 7.0881025,6.8947359 7.0881025,6.8947359 L 2.2317754,4.8663984 c 0,0 -1.0151758,-0.3706198 -1.0393467,0.5881573 C 1.1741497,6.17963 2.296231,6.5422442 2.296231,6.5422442"
       id="path9802"
       sodipodi:nodetypes="csccsc" />
  </g>
</svg>
